<svg viewBox="0 0 20 20" fill="none" xmlns="http://www.w3.org/2000/svg">
<path fill-rule="evenodd" clip-rule="evenodd" d="M0.953708 19.0461C0.42699 18.5194 0.42699 17.6654 0.953708 17.1387L17.1387 0.953739C17.6654 0.427021 18.5194 0.42702 19.0461 0.953738C19.5728 1.48046 19.5728 2.33444 19.0461 2.86115L2.86112 19.0461C2.33441 19.5728 1.48043 19.5728 0.953708 19.0461Z" fill="currentColor"/>
<path fill-rule="evenodd" clip-rule="evenodd" d="M0.953519 0.953708C1.48024 0.426989 2.33422 0.42699 2.86093 0.953708L19.0459 17.1387C19.5726 17.6654 19.5726 18.5194 19.0459 19.0461C18.5192 19.5728 17.6652 19.5728 17.1385 19.0461L0.953519 2.86112C0.4268 2.3344 0.426801 1.48043 0.953519 0.953708Z" fill="currentColor"/>
</svg>
