<svg width="91" height="83" viewBox="0 0 91 83" fill="none" xmlns="http://www.w3.org/2000/svg">
<g filter="url(#filter0_dii_1416_829)">
<path d="M88.9353 65.8585C88.9353 73.6687 69.4887 80.0002 45.5001 80.0002C21.5115 80.0002 2.06494 73.6687 2.06494 65.8585C2.06494 58.0482 21.5115 51.7168 45.5001 51.7168C60.7972 51.7168 74.2473 54.2914 81.9856 58.1823C86.3824 60.393 88.9353 63.0287 88.9353 65.8585Z" fill="#9487FF"/>
<path d="M88.9353 65.8585C88.9353 73.6687 69.4887 80.0002 45.5001 80.0002C21.5115 80.0002 2.06494 73.6687 2.06494 65.8585C2.06494 58.0482 21.5115 51.7168 45.5001 51.7168C60.7972 51.7168 74.2473 54.2914 81.9856 58.1823C86.3824 60.393 88.9353 63.0287 88.9353 65.8585Z" fill="url(#paint0_linear_1416_829)" fill-opacity="0.3"/>
</g>
<g filter="url(#filter1_f_1416_829)">
<path fill-rule="evenodd" clip-rule="evenodd" d="M87.7421 65.4424C86.8342 72.3907 68.2691 77.9379 45.5 77.9379C22.731 77.9379 4.16592 72.3907 3.25794 65.4424C3.23482 65.6193 3.22314 65.7972 3.22314 65.9758C3.22314 73.1716 22.1512 79.0048 45.5 79.0048C68.8489 79.0048 87.7769 73.1716 87.7769 65.9758C87.7769 65.7972 87.7653 65.6193 87.7421 65.4424Z" fill="url(#paint1_linear_1416_829)" fill-opacity="0.5"/>
</g>
<g filter="url(#filter2_i_1416_829)">
<path d="M18.8003 62.4118L18.7214 62.6156C18.7182 62.6237 18.7242 62.6324 18.7329 62.6324C18.7406 62.6324 18.7465 62.6394 18.7451 62.647C18.725 62.7621 18.7148 62.8779 18.7148 62.9944C18.7148 66.9925 30.7069 70.2336 45.4999 70.2336C60.2928 70.2336 72.2849 66.9925 72.2849 62.9944C72.2849 62.8779 72.2747 62.7621 72.2546 62.647C72.2533 62.6394 72.2591 62.6324 72.2668 62.6324C72.2755 62.6324 72.2815 62.6237 72.2784 62.6156L72.1994 62.4118C72.1638 62.2911 72.1173 62.1712 72.0601 62.0521L63.413 43.1063L55.9792 29.621C54.4054 26.7661 53.2267 23.7107 52.4754 20.5385L48.3954 3.31168C47.3205 0.537341 43.5371 -1.43585 42.4622 1.33849L35.3762 17.2632C34.0238 20.3024 33.0992 23.5144 32.6288 26.8075L31.4249 35.2346C30.7758 39.7788 29.2635 44.1569 26.9697 48.133L18.9397 62.0521C18.8824 62.1712 18.8359 62.2911 18.8003 62.4118Z" fill="#9487FF"/>
<path d="M18.8003 62.4118L18.7214 62.6156C18.7182 62.6237 18.7242 62.6324 18.7329 62.6324C18.7406 62.6324 18.7465 62.6394 18.7451 62.647C18.725 62.7621 18.7148 62.8779 18.7148 62.9944C18.7148 66.9925 30.7069 70.2336 45.4999 70.2336C60.2928 70.2336 72.2849 66.9925 72.2849 62.9944C72.2849 62.8779 72.2747 62.7621 72.2546 62.647C72.2533 62.6394 72.2591 62.6324 72.2668 62.6324C72.2755 62.6324 72.2815 62.6237 72.2784 62.6156L72.1994 62.4118C72.1638 62.2911 72.1173 62.1712 72.0601 62.0521L63.413 43.1063L55.9792 29.621C54.4054 26.7661 53.2267 23.7107 52.4754 20.5385L48.3954 3.31168C47.3205 0.537341 43.5371 -1.43585 42.4622 1.33849L35.3762 17.2632C34.0238 20.3024 33.0992 23.5144 32.6288 26.8075L31.4249 35.2346C30.7758 39.7788 29.2635 44.1569 26.9697 48.133L18.9397 62.0521C18.8824 62.1712 18.8359 62.2911 18.8003 62.4118Z" fill="url(#paint2_radial_1416_829)" fill-opacity="0.3"/>
<path d="M18.8003 62.4118L18.7214 62.6156C18.7182 62.6237 18.7242 62.6324 18.7329 62.6324C18.7406 62.6324 18.7465 62.6394 18.7451 62.647C18.725 62.7621 18.7148 62.8779 18.7148 62.9944C18.7148 66.9925 30.7069 70.2336 45.4999 70.2336C60.2928 70.2336 72.2849 66.9925 72.2849 62.9944C72.2849 62.8779 72.2747 62.7621 72.2546 62.647C72.2533 62.6394 72.2591 62.6324 72.2668 62.6324C72.2755 62.6324 72.2815 62.6237 72.2784 62.6156L72.1994 62.4118C72.1638 62.2911 72.1173 62.1712 72.0601 62.0521L63.413 43.1063L55.9792 29.621C54.4054 26.7661 53.2267 23.7107 52.4754 20.5385L48.3954 3.31168C47.3205 0.537341 43.5371 -1.43585 42.4622 1.33849L35.3762 17.2632C34.0238 20.3024 33.0992 23.5144 32.6288 26.8075L31.4249 35.2346C30.7758 39.7788 29.2635 44.1569 26.9697 48.133L18.9397 62.0521C18.8824 62.1712 18.8359 62.2911 18.8003 62.4118Z" fill="url(#paint3_linear_1416_829)" fill-opacity="0.3"/>
</g>
<g filter="url(#filter3_d_1416_829)">
<path d="M44.5708 40.9288C44.9049 40.0876 46.0955 40.0876 46.4296 40.9288L48.6334 46.4778C48.735 46.7338 48.9377 46.9365 49.1937 47.0381L54.7428 49.2419C55.5839 49.576 55.584 50.7666 54.7428 51.1007L49.1937 53.3045C48.9377 53.4062 48.735 53.6089 48.6334 53.8648L46.4296 59.4139C46.0955 60.2551 44.9049 60.2551 44.5708 59.4139L42.367 53.8648C42.2653 53.6089 42.0626 53.4062 41.8067 53.3045L36.2576 51.1007C35.4164 50.7666 35.4164 49.576 36.2576 49.2419L41.8067 47.0381C42.0626 46.9365 42.2653 46.7338 42.367 46.4779L44.5708 40.9288Z" fill="#FDCE01"/>
<path d="M44.5708 40.9288C44.9049 40.0876 46.0955 40.0876 46.4296 40.9288L48.6334 46.4778C48.735 46.7338 48.9377 46.9365 49.1937 47.0381L54.7428 49.2419C55.5839 49.576 55.584 50.7666 54.7428 51.1007L49.1937 53.3045C48.9377 53.4062 48.735 53.6089 48.6334 53.8648L46.4296 59.4139C46.0955 60.2551 44.9049 60.2551 44.5708 59.4139L42.367 53.8648C42.2653 53.6089 42.0626 53.4062 41.8067 53.3045L36.2576 51.1007C35.4164 50.7666 35.4164 49.576 36.2576 49.2419L41.8067 47.0381C42.0626 46.9365 42.2653 46.7338 42.367 46.4779L44.5708 40.9288Z" fill="url(#paint4_linear_1416_829)" fill-opacity="0.2"/>
<path d="M45.0355 41.1133C45.2025 40.6927 45.7978 40.6927 45.9649 41.1133L48.1687 46.6624C48.3212 47.0463 48.6252 47.3504 49.0091 47.5028L54.5582 49.7066C54.9788 49.8737 54.9788 50.469 54.5582 50.636L49.0091 52.8398C48.6252 52.9923 48.3212 53.2964 48.1687 53.6803L45.9649 59.2293C45.7978 59.6499 45.2025 59.6499 45.0355 59.2293L42.8317 53.6803C42.6792 53.2964 42.3752 52.9923 41.9913 52.8398L36.4422 50.636C36.0216 50.469 36.0216 49.8737 36.4422 49.7066L41.9913 47.5028C42.3752 47.3504 42.6792 47.0463 42.8317 46.6624L45.0355 41.1133Z" stroke="white" stroke-opacity="0.4"/>
</g>
<defs>
<filter id="filter0_dii_1416_829" x="0.0649414" y="50.7168" width="90.8701" height="32.2834" filterUnits="userSpaceOnUse" color-interpolation-filters="sRGB">
<feFlood flood-opacity="0" result="BackgroundImageFix"/>
<feColorMatrix in="SourceAlpha" type="matrix" values="0 0 0 0 0 0 0 0 0 0 0 0 0 0 0 0 0 0 127 0" result="hardAlpha"/>
<feOffset dy="1"/>
<feGaussianBlur stdDeviation="1"/>
<feComposite in2="hardAlpha" operator="out"/>
<feColorMatrix type="matrix" values="0 0 0 0 0.0348264 0 0 0 0 0.0583313 0 0 0 0 0.141667 0 0 0 0.2 0"/>
<feBlend mode="normal" in2="BackgroundImageFix" result="effect1_dropShadow_1416_829"/>
<feBlend mode="normal" in="SourceGraphic" in2="effect1_dropShadow_1416_829" result="shape"/>
<feColorMatrix in="SourceAlpha" type="matrix" values="0 0 0 0 0 0 0 0 0 0 0 0 0 0 0 0 0 0 127 0" result="hardAlpha"/>
<feOffset dy="-0.711111"/>
<feGaussianBlur stdDeviation="0.177778"/>
<feComposite in2="hardAlpha" operator="arithmetic" k2="-1" k3="1"/>
<feColorMatrix type="matrix" values="0 0 0 0 0.0348264 0 0 0 0 0.0583313 0 0 0 0 0.141667 0 0 0 0.15 0"/>
<feBlend mode="normal" in2="shape" result="effect2_innerShadow_1416_829"/>
<feColorMatrix in="SourceAlpha" type="matrix" values="0 0 0 0 0 0 0 0 0 0 0 0 0 0 0 0 0 0 127 0" result="hardAlpha"/>
<feOffset dy="-1"/>
<feComposite in2="hardAlpha" operator="arithmetic" k2="-1" k3="1"/>
<feColorMatrix type="matrix" values="0 0 0 0 0.580392 0 0 0 0 0.529412 0 0 0 0 1 0 0 0 1 0"/>
<feBlend mode="normal" in2="effect2_innerShadow_1416_829" result="effect3_innerShadow_1416_829"/>
</filter>
<filter id="filter1_f_1416_829" x="1.22314" y="63.4424" width="88.5537" height="17.5625" filterUnits="userSpaceOnUse" color-interpolation-filters="sRGB">
<feFlood flood-opacity="0" result="BackgroundImageFix"/>
<feBlend mode="normal" in="SourceGraphic" in2="BackgroundImageFix" result="shape"/>
<feGaussianBlur stdDeviation="1" result="effect1_foregroundBlur_1416_829"/>
</filter>
<filter id="filter2_i_1416_829" x="18.7148" y="-1" width="53.5698" height="71.2336" filterUnits="userSpaceOnUse" color-interpolation-filters="sRGB">
<feFlood flood-opacity="0" result="BackgroundImageFix"/>
<feBlend mode="normal" in="SourceGraphic" in2="BackgroundImageFix" result="shape"/>
<feColorMatrix in="SourceAlpha" type="matrix" values="0 0 0 0 0 0 0 0 0 0 0 0 0 0 0 0 0 0 127 0" result="hardAlpha"/>
<feOffset dy="-1"/>
<feGaussianBlur stdDeviation="3"/>
<feComposite in2="hardAlpha" operator="arithmetic" k2="-1" k3="1"/>
<feColorMatrix type="matrix" values="0 0 0 0 0.580392 0 0 0 0 0.529412 0 0 0 0 1 0 0 0 1 0"/>
<feBlend mode="normal" in2="shape" result="effect1_innerShadow_1416_829"/>
</filter>
<filter id="filter3_d_1416_829" x="35.2714" y="40.2979" width="20.4577" height="20.8135" filterUnits="userSpaceOnUse" color-interpolation-filters="sRGB">
<feFlood flood-opacity="0" result="BackgroundImageFix"/>
<feColorMatrix in="SourceAlpha" type="matrix" values="0 0 0 0 0 0 0 0 0 0 0 0 0 0 0 0 0 0 127 0" result="hardAlpha"/>
<feOffset dy="0.711111"/>
<feGaussianBlur stdDeviation="0.177778"/>
<feComposite in2="hardAlpha" operator="out"/>
<feColorMatrix type="matrix" values="0 0 0 0 0.0348264 0 0 0 0 0.0583313 0 0 0 0 0.141667 0 0 0 0.1 0"/>
<feBlend mode="normal" in2="BackgroundImageFix" result="effect1_dropShadow_1416_829"/>
<feBlend mode="normal" in="SourceGraphic" in2="effect1_dropShadow_1416_829" result="shape"/>
</filter>
<linearGradient id="paint0_linear_1416_829" x1="48.9749" y1="53.2806" x2="49.7436" y2="90.3413" gradientUnits="userSpaceOnUse">
<stop stop-color="white"/>
<stop offset="1" stop-color="white" stop-opacity="0"/>
</linearGradient>
<linearGradient id="paint1_linear_1416_829" x1="49.554" y1="84.1379" x2="48.1008" y2="63.3096" gradientUnits="userSpaceOnUse">
<stop stop-color="white"/>
<stop offset="1" stop-color="white" stop-opacity="0"/>
</linearGradient>
<radialGradient id="paint2_radial_1416_829" cx="0" cy="0" r="1" gradientUnits="userSpaceOnUse" gradientTransform="translate(45.4997 67.1797) rotate(90) scale(23.7446 17.8084)">
<stop offset="0.338542" stop-color="#685BD1"/>
<stop offset="1" stop-color="#9487FF" stop-opacity="0"/>
</radialGradient>
<linearGradient id="paint3_linear_1416_829" x1="45.4999" y1="-0.742265" x2="44.9206" y2="69.9123" gradientUnits="userSpaceOnUse">
<stop stop-color="white"/>
<stop offset="1" stop-color="white" stop-opacity="0"/>
</linearGradient>
<linearGradient id="paint4_linear_1416_829" x1="45.5002" y1="38.5886" x2="45.5002" y2="61.754" gradientUnits="userSpaceOnUse">
<stop stop-color="white"/>
<stop offset="1" stop-color="white" stop-opacity="0"/>
</linearGradient>
</defs>
</svg>
