<svg width="24" height="24" viewBox="0 0 24 24" fill="none" xmlns="http://www.w3.org/2000/svg">
<path d="M13.7 21.575L5.27502 13.175C5.17502 13.075 5.10402 12.9667 5.06202 12.85C5.02002 12.7333 4.99935 12.6083 5.00002 12.475C5.00002 12.3417 5.02102 12.2167 5.06302 12.1C5.10502 11.9833 5.17568 11.875 5.27502 11.775L13.7 3.35C13.9333 3.11667 14.225 3 14.575 3C14.925 3 15.225 3.125 15.475 3.375C15.725 3.625 15.85 3.91667 15.85 4.25C15.85 4.58333 15.725 4.875 15.475 5.125L8.12502 12.475L15.475 19.825C15.7083 20.0583 15.825 20.346 15.825 20.688C15.825 21.03 15.7 21.3257 15.45 21.575C15.2 21.825 14.9083 21.95 14.575 21.95C14.2417 21.95 13.95 21.825 13.7 21.575Z" fill="black"/>
</svg>
