<svg width="24" height="24" viewBox="0 0 24 24" fill="none" xmlns="http://www.w3.org/2000/svg">
<path d="M9.375 21.6C9.125 21.35 9 21.054 9 20.712C9 20.37 9.125 20.0743 9.375 19.825L16.7 12.5L9.35 5.15C9.11667 4.91667 9 4.625 9 4.275C9 3.925 9.125 3.625 9.375 3.375C9.625 3.125 9.921 3 10.263 3C10.605 3 10.9007 3.125 11.15 3.375L19.55 11.8C19.65 11.9 19.721 12.0083 19.763 12.125C19.805 12.2417 19.8257 12.3667 19.825 12.5C19.825 12.6333 19.804 12.7583 19.762 12.875C19.72 12.9917 19.6493 13.1 19.55 13.2L11.125 21.625C10.8917 21.8583 10.604 21.975 10.262 21.975C9.92 21.975 9.62433 21.85 9.375 21.6Z" fill="black"/>
</svg>
